<svg width="1200" height="630" viewBox="0 0 1200 630" fill="none" xmlns="http://www.w3.org/2000/svg">
  <rect width="1200" height="630" fill="#0a0a0a"/>
  <rect width="1200" height="630" fill="url(#grad)" opacity="0.8"/>
  <defs>
    <linearGradient id="grad" x1="0" y1="0" x2="1200" y2="630" gradientUnits="userSpaceOnUse">
      <stop offset="0%" stop-color="#001830"/>
      <stop offset="100%" stop-color="#0a0a0a"/>
    </linearGradient>
    <linearGradient id="glow" x1="0" y1="0" x2="1" y2="0">
      <stop offset="0%" stop-color="#00f5ff"/>
      <stop offset="100%" stop-color="#ff00aa"/>
    </linearGradient>
  </defs>
  <!-- Grid pattern -->
  <g opacity="0.05">
    <line x1="0" y1="0" x2="0" y2="630" stroke="white" stroke-width="0.5"/>
    <line x1="60" y1="0" x2="60" y2="630" stroke="white" stroke-width="0.5"/>
    <line x1="120" y1="0" x2="120" y2="630" stroke="white" stroke-width="0.5"/>
    <line x1="180" y1="0" x2="180" y2="630" stroke="white" stroke-width="0.5"/>
    <line x1="240" y1="0" x2="240" y2="630" stroke="white" stroke-width="0.5"/>
    <line x1="300" y1="0" x2="300" y2="630" stroke="white" stroke-width="0.5"/>
    <line x1="360" y1="0" x2="360" y2="630" stroke="white" stroke-width="0.5"/>
    <line x1="420" y1="0" x2="420" y2="630" stroke="white" stroke-width="0.5"/>
    <line x1="480" y1="0" x2="480" y2="630" stroke="white" stroke-width="0.5"/>
    <line x1="540" y1="0" x2="540" y2="630" stroke="white" stroke-width="0.5"/>
    <line x1="600" y1="0" x2="600" y2="630" stroke="white" stroke-width="0.5"/>
    <line x1="660" y1="0" x2="660" y2="630" stroke="white" stroke-width="0.5"/>
    <line x1="720" y1="0" x2="720" y2="630" stroke="white" stroke-width="0.5"/>
    <line x1="780" y1="0" x2="780" y2="630" stroke="white" stroke-width="0.5"/>
    <line x1="840" y1="0" x2="840" y2="630" stroke="white" stroke-width="0.5"/>
    <line x1="900" y1="0" x2="900" y2="630" stroke="white" stroke-width="0.5"/>
    <line x1="960" y1="0" x2="960" y2="630" stroke="white" stroke-width="0.5"/>
    <line x1="1020" y1="0" x2="1020" y2="630" stroke="white" stroke-width="0.5"/>
    <line x1="1080" y1="0" x2="1080" y2="630" stroke="white" stroke-width="0.5"/>
    <line x1="1140" y1="0" x2="1140" y2="630" stroke="white" stroke-width="0.5"/>
    <line x1="0" y1="0" x2="1200" y2="0" stroke="white" stroke-width="0.5"/>
    <line x1="0" y1="60" x2="1200" y2="60" stroke="white" stroke-width="0.5"/>
    <line x1="0" y1="120" x2="1200" y2="120" stroke="white" stroke-width="0.5"/>
    <line x1="0" y1="180" x2="1200" y2="180" stroke="white" stroke-width="0.5"/>
    <line x1="0" y1="240" x2="1200" y2="240" stroke="white" stroke-width="0.5"/>
    <line x1="0" y1="300" x2="1200" y2="300" stroke="white" stroke-width="0.5"/>
    <line x1="0" y1="360" x2="1200" y2="360" stroke="white" stroke-width="0.5"/>
    <line x1="0" y1="420" x2="1200" y2="420" stroke="white" stroke-width="0.5"/>
    <line x1="0" y1="480" x2="1200" y2="480" stroke="white" stroke-width="0.5"/>
    <line x1="0" y1="540" x2="1200" y2="540" stroke="white" stroke-width="0.5"/>
  </g>
  <!-- Glowing orb -->
  <circle cx="600" cy="315" r="180" fill="url(#glow)" opacity="0.08" filter="url(#blur)"/>
  <defs>
    <filter id="blur">
      <feGaussianBlur stdDeviation="60"/>
    </filter>
  </defs>
  <!-- Text -->
  <text x="600" y="240" text-anchor="middle" font-family="'Space Grotesk', Arial, sans-serif" font-size="80" font-weight="bold" fill="#00f5ff" letter-spacing="4">FORGE YOUR LEGACY</text>
  <text x="600" y="320" text-anchor="middle" font-family="'Inter', Arial, sans-serif" font-size="28" fill="#a0a0a0" letter-spacing="1">Premium Fitness — Karachi</text>
  <line x1="400" y1="370" x2="800" y2="370" stroke="#00f5ff" stroke-width="2" opacity="0.3"/>
  <text x="600" y="430" text-anchor="middle" font-family="'Inter', Arial, sans-serif" font-size="22" fill="#00f5ff" letter-spacing="2">200+ Machines · 12+ Programs · Expert Trainers</text>
  <!-- Bottom bar -->
  <rect x="0" y="570" width="1200" height="60" fill="#121212"/>
  <text x="600" y="608" text-anchor="middle" font-family="'Inter', Arial, sans-serif" font-size="18" fill="#666" letter-spacing="1">titanforge.pk</text>
</svg>
